<?xml version="1.0" encoding="UTF-8" standalone="no"?>
<svg
   version="1.1"
   id="Layer_1"
   x="0px"
   y="0px"
   width="853"
   viewBox="0 0 853 301"
   enable-background="new 0 0 1024 1024"
   xml:space="preserve"
   sodipodi:docname="file.svg"
   height="301"
   inkscape:version="1.4.2 (ebf0e940, 2025-05-08)"
   xmlns:inkscape="http://www.inkscape.org/namespaces/inkscape"
   xmlns:sodipodi="http://sodipodi.sourceforge.net/DTD/sodipodi-0.dtd"
   xmlns="http://www.w3.org/2000/svg"
   xmlns:svg="http://www.w3.org/2000/svg"><defs
   id="defs7"><rect
     x="329.84616"
     y="80"
     width="640"
     height="235.07692"
     id="rect7" /></defs><sodipodi:namedview
   id="namedview7"
   pagecolor="#ffffff"
   bordercolor="#000000"
   borderopacity="0.25"
   inkscape:showpageshadow="2"
   inkscape:pageopacity="0.0"
   inkscape:pagecheckerboard="0"
   inkscape:deskcolor="#d1d1d1"
   inkscape:zoom="0.8125"
   inkscape:cx="511.38462"
   inkscape:cy="511.38462"
   inkscape:window-width="2224"
   inkscape:window-height="1186"
   inkscape:window-x="1157"
   inkscape:window-y="77"
   inkscape:window-maximized="0"
   inkscape:current-layer="Layer_1" />
<path
   fill="#000000"
   opacity="1"
   stroke="none"
   d="m 189.62056,158.8651 c 5.54397,-2.38134 10.17846,-5.8608 14.30763,-10.05856 0.58859,-0.59838 1.13993,-1.25288 1.80598,-1.75107 1.03719,-0.77582 2.28066,-0.95595 3.28519,-0.0997 1.01312,0.86353 0.38077,1.93563 -0.17129,2.81765 -1.68483,2.69179 -3.65344,5.15689 -5.99367,7.31958 -1.95941,1.81074 -4.00365,3.51981 -6.29231,5.28266 2.52308,0.70762 4.94823,0.85946 7.33958,1.11276 5.54035,0.58685 11.09766,0.99358 16.6659,1.23098 1.13159,0.0483 1.8821,0.61636 2.02567,1.7704 0.15107,1.21442 -0.45227,1.95023 -1.60839,2.30871 -0.72448,0.22465 -1.45613,0.24192 -2.19793,0.24711 -6.66986,0.0467 -13.32875,-0.41288 -19.991,-0.50699 -15.27798,-0.21583 -29.09444,3.75823 -40.23007,14.87049 -1.29328,1.29056 -1.17556,1.86212 0.55148,2.4329 1.51831,0.50176 3.10678,0.5973 4.67209,0.65351 4.52841,0.1626 9.07352,0.60057 13.56861,-0.40747 2.15127,-0.48245 3.86375,-1.64291 4.75511,-3.66251 1.30383,-2.9542 3.48337,-3.98509 6.62624,-3.80603 4.1881,0.23864 8.39843,-0.12236 12.58791,0.3027 2.17066,0.22024 3.10494,1.39055 2.51584,3.52868 -1.01702,3.69137 -2.58718,6.82987 -8.33001,6.79309 -3.98054,-0.0255 -8.01123,-0.47376 -11.90268,0.85751 -1.26045,0.4312 -2.55221,0.78914 -3.69165,1.50839 -1.28979,0.81414 -1.41504,1.32504 -0.39849,2.46595 2.0084,2.25402 4.15549,4.36943 6.68781,6.05134 0.37047,0.24608 0.74463,0.48699 1.10831,0.74275 0.96464,0.6783 1.61252,1.50538 1.09526,2.75501 -0.44999,1.08715 -2.0417,1.79728 -3.25288,1.43362 -2.52674,-0.75861 -4.47661,-2.46994 -6.50611,-4.03718 -2.11083,-1.63007 -4.02372,-3.50561 -6.24048,-5.007 -4.20572,-2.84849 -8.85448,-3.29439 -13.62612,-2.18555 -5.3778,1.2497 -7.77829,5.37586 -9.09236,10.3125 -0.49559,1.86184 -0.65128,3.78107 -0.67773,5.71282 -0.12101,8.84082 0.25431,17.62824 2.09118,26.32576 1.92963,9.13674 7.02732,15.70708 15.33979,19.88754 5.44409,2.73791 11.15943,4.78495 16.87415,6.84484 0.88092,0.31754 1.78133,0.613 2.52985,1.20711 0.45571,0.36169 0.69646,0.84399 0.58139,1.43394 -0.11399,0.58449 -0.59833,0.71822 -1.09669,0.83767 -2.12892,0.51025 -4.22852,-0.0303 -6.32531,-0.22194 -8.68526,-0.79365 -17.03532,-3.17472 -25.38496,-5.5256 -4.58007,-1.28954 -8.43312,-0.34192 -11.64409,3.28728 -1.79791,2.03212 -3.7585,3.92999 -6.06096,5.42421 -1.12897,0.73266 -2.31405,1.32214 -3.64752,1.57375 -1.77662,0.33521 -2.56459,-0.42106 -2.28441,-2.17288 0.27206,-1.70101 0.65036,-3.39674 0.76133,-5.10908 0.17081,-2.63605 -1.37889,-3.89305 -4.01116,-3.45274 -2.5356,0.42417 -5.00236,1.12386 -7.4619,1.85102 -6.77697,2.00363 -13.67317,3.43433 -20.692085,4.24592 -1.76159,0.20371 -3.54391,0.30258 -5.3169,0.30506 -1.05255,0.001 -2.37407,-0.009 -2.57702,-1.42288 -0.19762,-1.37715 1.017,-1.8409 2.02711,-2.18627 4.01529,-1.37292 8.093605,-2.56285 12.029835,-4.16432 3.21431,-1.30779 6.22283,-2.98723 9.13485,-4.87753 6.05005,-3.92729 9.26187,-9.7074 10.93438,-16.5002 1.07442,-4.36367 1.57039,-8.81055 1.85558,-13.2973 0.30064,-4.73001 0.71436,-9.44132 0.26932,-14.18982 -0.95412,-10.18036 -6.4403,-20.24974 -19.54179,-22.14692 -1.60072,-0.23179 -3.22575,-0.38422 -4.86695,-0.37316 -6.771175,0.0457 -13.542965,-0.005 -20.314265,0.0306 -2.81479,0.0148 -5.62847,0.1798 -8.44348,0.23357 -1.78848,0.0342 -3.10099,0.87148 -3.69491,2.47892 -0.99753,2.69979 -1.04678,5.54475 -1.05091,8.71218 0.8111,-0.68799 0.7738,-1.36257 0.93163,-1.92151 0.49576,-1.75573 0.9029,-3.53724 1.60593,-5.22907 0.51291,-1.23435 1.43727,-1.8196 2.77432,-1.81887 10.23129,0.005 20.46262,-0.0119 30.693845,0.0126 2.32275,0.006 3.10169,1.09336 2.60503,3.33794 -1.19226,5.38834 -2.81935,10.67418 -3.7437,16.1274 -0.28529,1.68308 -1.5354,2.66824 -3.28022,2.65385 -10.378875,-0.0855 -20.752335,0.48791 -31.131725,0.23576 -0.58952,-0.0143 -1.17999,-0.10302 -1.76441,-0.19335 -2.07462,-0.32072 -3.35711,-1.74746 -3.36105,-3.83642 -0.0166,-8.79794 -0.0211,-17.59597 -0.002,-26.39391 0.005,-2.32316 1.24975,-3.49968 3.63212,-3.51114 3.21265,-0.0155 6.42592,0.0366 9.63807,-0.006 2.4411,-0.0321 4.4775,0.80664 5.96444,2.72542 1.22899,1.5859 2.69789,2.20351 4.72791,2.14019 4.69147,-0.14641 9.38964,-0.0768 14.085055,-0.10055 0.44386,-0.002 0.89345,-0.009 1.32936,-0.0806 0.3331,-0.0548 0.7139,-0.15805 0.83109,-0.53532 0.14132,-0.45499 -0.15723,-0.76315 -0.49788,-0.97595 -1.04675,-0.65394 -2.09169,-1.31492 -3.17185,-1.91056 -5.665755,-3.12432 -11.287525,-6.34428 -17.406445,-8.54163 -3.17869,-1.14146 -6.44874,-1.75976 -9.84883,-1.73917 -6.91947,0.0419 -13.839349,0.016 -20.759059,0.0156 -2.02706,-1.1e-4 -4.04774,-0.12965 -6.02701,-0.57553 -1.76554,-0.39774 -2.5653,-1.42376 -2.36312,-2.85828 0.18073,-1.2823 1.28128,-2.08039 2.97061,-2.08759 3.85523,-0.0164 7.71485,0.10468 11.56468,-0.0412 3.985149,-0.15098 7.995239,-0.2048 11.910089,-1.15065 0.51822,-0.12522 1.06358,-0.18157 1.49973,-0.57027 -0.0794,-0.71626 -0.62979,-1.11102 -1.03929,-1.5764 -2.02892,-2.3057 -3.87754,-4.74408 -5.49016,-7.35832 -0.31046,-0.5033 -0.60161,-1.02421 -0.84326,-1.56319 -0.72346,-1.61362 -0.50361,-2.82919 0.62989,-3.37218 1.16908,-0.56004 3.39155,-0.54936 4.12247,0.82581 4.09646,7.70723 10.93359,12.12426 18.65549,15.50799 7.19636,3.15343 14.679575,5.57838 21.876055,8.72743 5.61611,2.45751 11.24212,4.88833 16.0474,8.82067 0.84458,0.69118 1.54787,0.46109 2.08329,-0.43212 0.28169,-0.46992 0.51765,-0.96359 0.50576,-1.52805 -0.10088,-4.78645 0.29165,-9.57625 -0.22415,-14.36173 -0.85865,-7.96644 -4.71703,-14.10063 -11.17522,-18.71107 -5.74531,-4.10152 -12.25231,-6.00808 -19.177155,-6.76695 -2.74745,-0.30109 -5.48905,-0.59472 -8.25959,-0.62711 -1.10668,-0.0129 -2.16012,-0.39612 -2.54263,-1.65947 -0.39691,-1.31088 0.4066,-2.60035 1.78456,-2.61612 5.1825,-0.0593 10.37004,-0.18157 15.513125,0.71226 1.9316,0.3357 3.881,0.56899 6.00134,0.87478 -0.27864,-0.92571 -0.87455,-1.36567 -1.39203,-1.84303 -5.7053,-5.26304 -10.748075,-11.05156 -14.284685,-18.02901 -1.56428,-3.08622 -2.98342,-6.23941 -4.00222,-9.55325 -0.50505,-1.64277 -0.0278,-2.67471 1.32228,-3.10745 1.58051,-0.50661 3.21987,0.0864 3.68661,1.44294 3.985295,11.58289 11.682395,20.10663 21.819085,26.66107 3.56797,2.30706 7.04368,4.7563 10.58324,7.10793 1.76598,1.17327 2.66723,0.85078 2.92112,-1.23318 0.58626,-4.81221 0.73419,-9.66949 0.22446,-14.48299 -1.29448,-12.22383 -8.53796,-20.34181 -18.6432,-26.392827 -0.50846,-0.30446 -1.02849,-0.59475 -1.50938,-0.93882 -0.67375,-0.48207 -1.22813,-1.08366 -0.90192,-1.99167 0.31602,-0.87966 1.04539,-1.28637 1.95151,-1.35124 1.18553,-0.0849 2.22509,0.41913 3.23765,0.92445 4.20741,2.09976 8.24784,4.47263 11.9438,7.402527 0.6175,0.48952 1.26625,0.95537 1.95252,1.33925 1.60743,0.8991 2.7305,0.26358 2.74587,-1.56801 0.0278,-3.311327 0.0732,-6.624947 -0.0168,-9.934127 -0.0875,-3.21797 0.29769,-6.41039 0.34706,-9.61978 0.0302,-1.96421 0.55288,-2.38314 2.54229,-2.44299 3.54294,-0.10658 3.41717,-0.10076 3.57878,3.38859 0.30566,6.59948 0.74645,13.19324 1.18672,19.785647 0.1213,1.81644 1.44055,2.37263 3.05196,1.24995 2.27344,-1.5839 4.28972,-3.49733 6.29524,-5.400677 2.93867,-2.78897 5.79461,-5.665 8.69742,-8.49203 0.60061,-0.58494 1.22043,-1.15952 1.88787,-1.66418 0.88476,-0.66898 1.80486,-1.33042 2.85121,-0.19077 0.94013,1.02396 1.00741,2.32628 0.0394,3.45861 -1.15541,1.35158 -2.36793,2.65448 -3.56064,3.97401 -3.6786,4.06969 -7.34137,8.148797 -10.63102,12.552097 -4.19357,5.61323 -6.23674,11.88774 -6.31488,18.89241 -0.0954,8.5507 0.48869,17.07402 1.00069,25.59265 0.35988,5.98708 0.85789,11.98364 1.72014,17.9334 0.0635,0.43793 0.16837,0.87125 0.27671,1.30098 0.41918,1.66282 1.31475,2.06304 2.67498,1.07973 4.2858,-3.09819 8.52292,-6.26149 12.38652,-9.89031 4.5251,-4.25011 7.86911,-9.35717 10.75845,-14.79763 0.7307,-1.37584 4.14881,-2.24327 5.43365,-1.33765 0.80543,0.5677 0.51613,1.40823 0.24386,2.16012 -1.16234,3.2099 -2.64508,6.27851 -4.14585,9.33881 -0.45683,0.93162 -0.91347,1.86347 -1.35716,2.80139 -0.885,1.87081 -0.37718,2.71186 1.66239,2.73444 2.45456,0.0271 4.76306,-0.71837 7.08025,-1.39164 3.18256,-0.92474 6.25439,-2.14809 9.37234,-3.56322 z"
   id="path1"
   style="fill:#ebe34c;fill-opacity:1;stroke-width:0.296577" />
<path
   fill="#000000"
   opacity="1"
   stroke="none"
   d="m 111.29369,68.416307 c -0.0335,-8.79441 -0.0683,-17.44117 -0.0978,-26.08795 -0.0108,-3.16348 1.08695,-4.24874 4.27218,-4.2619 3.79834,-0.0157 7.5971,-0.0807 11.39482,-0.0417 2.13123,0.0219 3.6422,1.20484 4.55609,3.05076 0.56785,1.14696 1.3367,1.5041 2.58138,1.49093 5.48397,-0.058 10.96902,-0.0429 16.4534,-0.0109 1.12978,0.007 2.26924,0.13481 3.38437,0.32403 0.94161,0.15978 1.78651,0.59499 2.25684,1.51257 0.92453,1.80362 0.34151,2.78773 -1.65865,2.78812 -11.75975,0.002 -23.51948,-9.6e-4 -35.27922,0.002 -2.55692,5.9e-4 -3.79222,1.05891 -3.85907,3.64658 -0.0982,3.80174 -0.0176,7.60814 -0.004,11.41253 4.4e-4,0.12855 0.0968,0.25675 0.15057,0.39036 0.53775,-0.0483 0.45096,-0.46196 0.49926,-0.76992 0.41158,-2.6243 0.80325,-5.25179 1.22958,-7.87365 0.10225,-0.62884 0.29449,-1.24531 0.47515,-1.85868 0.44888,-1.52393 1.40662,-2.15547 3.06299,-2.14781 11.80885,0.0546 23.61808,0.0317 35.42717,0.0366 0.39478,1.6e-4 0.79141,0.0143 1.18405,0.0534 3.50469,0.34894 4.34805,1.49336 3.64172,4.98518 -1.18171,5.84187 -2.36174,11.68417 -3.57751,17.51899 -0.47273,2.26868 -1.73515,3.31859 -4.04206,3.3402 -12.44881,0.11662 -24.89779,0.21907 -37.3469,0.29458 -2.94682,0.0179 -4.48016,-1.45268 -4.68063,-4.38648 -0.0739,-1.08208 -0.0188,-2.17298 -0.0234,-3.4075 z"
   id="path2"
   style="fill:#ebe34c;fill-opacity:1;stroke-width:0.296577" />
<path
   fill="#000000"
   opacity="1"
   stroke="none"
   d="m 209.40105,97.275433 c -6.19521,0.422 -12.27396,0.25249 -18.34876,0.32243 -5.48195,0.0631 -10.96349,0.15929 -16.44542,0.22229 -3.76355,0.0433 -5.2314,-1.3742 -5.24271,-5.14192 -0.0274,-9.14 -0.0291,-18.280136 -0.0174,-27.420176 0.004,-2.86594 1.5396,-4.35147 4.41586,-4.3562 2.81611,-0.005 5.63243,0.0252 8.44834,0.002 2.7586,-0.0228 4.91641,1.0508 6.22327,3.50413 0.55248,1.03716 1.2543,1.31908 2.36692,1.30861 6.12586,-0.0577 12.25242,-0.0649 18.37864,-0.0509 2.75046,0.006 4.197,1.99867 3.44913,4.5561 -0.21275,0.72753 -0.58595,0.87487 -1.27823,0.87576 -10.96248,0.0142 -21.92498,0.0435 -32.88733,0.10013 -1.6647,0.009 -3.11212,1.00043 -3.39956,2.56911 -0.56692,3.09406 -0.92941,6.226166 -1.34265,9.347006 -0.0479,0.36169 0.11818,0.7517 0.24828,1.48495 1.1057,-2.1712 1.28227,-4.24818 1.86284,-6.197426 0.12622,-0.42376 0.19582,-0.86433 0.2927,-1.29688 0.6555,-2.92642 1.6268,-3.72407 4.56468,-3.72589 11.11632,-0.007 22.23266,-0.0131 33.34899,-0.0134 2.83335,-8e-5 3.67716,1.02529 2.99824,3.78034 -1.40286,5.692926 -2.86949,11.370106 -4.28893,17.058996 -0.43013,1.72387 -1.49014,2.73086 -3.34685,3.07105 z"
   id="path3"
   style="fill:#ebe34c;fill-opacity:1;stroke-width:0.296577" />
<path
   fill="#000000"
   opacity="1"
   stroke="none"
   d="m 75.420075,100.84251 c -2.96522,9.4e-4 -5.78225,0.016 -8.59905,-0.001 -2.95118,-0.0182 -4.54422,-1.640117 -4.54648,-4.615927 -0.007,-8.94498 -0.009,-17.889946 -0.005,-26.834926 10e-4,-2.82315 1.4587,-4.30049 4.28803,-4.32161 3.01441,-0.0225 6.02984,0.0382 9.04354,-0.0127 2.22243,-0.0375 3.99841,0.73383 5.05718,2.70944 0.65956,1.23071 1.5617,1.55796 2.88441,1.54073 5.38598,-0.0702 10.77314,-0.0556 16.15987,-0.0591 1.344585,-8.9e-4 2.669205,0.10494 3.760735,1.04976 0.54116,0.46843 0.92792,1.00973 1.04921,1.73342 0.29421,1.75558 -0.003,2.05362 -1.78479,1.89298 -0.83411,-0.0752 -1.67847,-0.0477 -2.51818,-0.0478 -9.488595,-0.001 -18.977195,-0.003 -28.465795,0.005 -3.55638,0.003 -4.98183,1.45047 -5.13843,5.02176 -0.1118,2.549626 -0.34147,5.094086 -0.38932,7.670706 0.75113,-0.93252 0.804,-2.09996 1.06565,-3.17925 0.38274,-1.5788 0.61199,-3.19512 1.00375,-4.771316 0.4293,-1.72722 1.19625,-2.29804 2.94372,-2.29903 11.36654,-0.006 22.73309,-0.007 34.099625,0.004 2.18561,0.002 3.25101,1.18654 2.73668,3.331746 -1.50557,6.27952 -3.09986,12.53837 -4.72463,18.78835 -0.41745,1.605807 -2.01404,2.386657 -4.496085,2.390447 -7.75885,0.0119 -15.51773,0.005 -23.42488,0.005 z"
   id="path4"
   style="fill:#ebe34c;fill-opacity:1;stroke-width:0.296577" />
<path
   fill="#000000"
   opacity="1"
   stroke="none"
   d="m 53.770006,116.782 c -2.22366,0.0191 -4.2994,0.0661 -6.37432,0.0424 -1.4604,-0.0167 -2.28385,0.683 -2.70296,2.03617 -0.44042,1.42198 -0.65802,2.88966 -0.80027,4.35099 -0.21299,2.18805 -0.24574,4.39365 -0.35515,6.59179 0.12638,0.0176 0.25277,0.0352 0.37915,0.0528 0.47921,-2.16876 0.99406,-4.33039 1.42983,-6.50784 0.78558,-3.92546 1.17889,-4.28973 5.14794,-4.29529 10.229409,-0.0143 20.458829,-0.0172 30.688249,-0.0178 2.3288,-1.4e-4 3.22884,1.10348 2.73669,3.38664 -1.3076,6.06618 -2.62527,12.13023 -3.96157,18.19014 -0.44726,2.02822 -1.52276,2.93516 -3.64767,2.93984 -11.11885,0.0245 -22.237789,0.0212 -33.356649,-0.002 -1.75757,-0.004 -3.22226,-1.41654 -3.56555,-3.17801 -0.29918,-1.5352 0.0183,-3.05552 0.0253,-4.58234 0.0361,-7.80699 0.0256,-15.61265 -0.23067,-23.41728 -0.11567,-3.52266 1.26367,-4.89545 4.72854,-4.89302 2.56971,0.002 5.14397,0.0994 7.70781,-0.0224 2.48857,-0.11819 4.36785,0.84743 5.61088,2.89309 0.97913,1.61133 2.26407,2.05829 4.070399,2.02496 5.18704,-0.0957 10.37713,-0.0533 15.56577,-0.0229 2.6023,0.0152 3.28598,0.6854 3.5745,3.1105 0.11613,0.97602 -0.16787,1.36142 -1.1823,1.30576 -5.33209,-0.29249 -10.66678,-0.018 -16.00048,-0.0284 -3.113029,-0.006 -6.226149,0.0253 -9.487499,0.0421 z"
   id="path5"
   style="fill:#ebe34c;fill-opacity:1;stroke-width:0.296577" />
<path
   fill="#000000"
   opacity="1"
   stroke="none"
   d="m 157.76816,122.69291 c -9.9e-4,-3.50918 -0.003,-6.87006 -0.003,-10.23095 8.1e-4,-3.32841 1.35205,-4.70702 4.61898,-4.70717 3.26204,-1.5e-4 6.52526,0.0612 9.78576,-0.008 2.37517,-0.0506 4.13876,0.85085 5.18031,2.97899 0.66422,1.35715 1.57707,1.87593 3.14684,1.8399 4.84105,-0.11114 9.68635,-0.032 14.53001,-0.0389 0.79601,-0.001 1.57659,0.0643 2.34582,0.27215 1.59961,0.4323 2.54395,2.16142 2.05412,3.71995 -0.28289,0.90014 -1.02497,0.63252 -1.60925,0.6337 -7.46314,0.0152 -14.92636,0.004 -22.38954,0.003 -3.21262,-5.1e-4 -6.4255,-0.0178 -9.63774,0.0187 -1.96597,0.0223 -3.39598,1.13563 -3.58101,3.06677 -0.27611,2.88192 -0.3168,5.78639 -0.35709,8.69826 1.0324,-1.87669 1.23916,-3.99082 1.82164,-5.99037 0.12381,-0.42501 0.20069,-0.8636 0.32114,-1.28971 0.54518,-1.92867 1.0201,-2.29261 3.03923,-2.28882 10.32973,0.0194 20.66084,0.14905 30.98851,0.0138 3.98124,-0.0521 4.94724,1.19428 3.94314,5.13077 -1.32712,5.20292 -2.41481,10.46653 -3.6484,15.69391 -0.48656,2.06188 -1.65719,3.01951 -3.79565,3.02561 -11.0217,0.0315 -22.04357,0.0385 -33.06526,0.008 -2.50972,-0.007 -3.69257,-1.30146 -3.69391,-3.79469 -0.003,-5.53562 0.003,-11.07126 0.005,-16.75517 z"
   id="path6"
   style="fill:#ebe34c;fill-opacity:1;stroke-width:0.296577" />
<path
   fill="#000000"
   opacity="1"
   stroke="none"
   d="m 211.49854,133.9628 c -0.008,-5.82959 -0.013,-11.5109 -0.0272,-17.19219 -0.008,-3.42464 1.52172,-4.82701 5.51382,-4.7821 3.57105,0.0402 7.14511,-0.11153 10.71623,0.16492 1.82089,0.14096 3.22759,0.75426 4.0863,2.12233 1.21137,1.92988 3.00039,2.62863 5.55593,2.47144 2.7531,-0.16935 5.53254,-0.009 8.30026,-0.0228 4.2492,-0.0216 5.22186,0.98141 4.51109,4.72622 -0.51965,0.2909 -1.11009,0.15398 -1.67105,0.15413 -9.05356,0.002 -18.10709,-0.007 -27.16064,-0.007 -3.33571,-1.3e-4 -4.63078,1.06476 -4.78698,3.97698 -0.11613,2.16501 -0.52975,4.31625 -0.30525,6.56379 0.91479,-1.89651 1.29257,-3.88192 1.88037,-5.81502 0.75498,-2.48293 0.87927,-2.55511 3.85985,-2.55408 9.68788,0.003 19.37577,0.004 29.06365,0.008 2.84176,10e-4 3.79271,0.92021 3.231,3.2833 -1.25002,5.25873 -2.54428,10.50997 -3.86374,15.75628 -0.47379,1.88378 -2.04184,2.77945 -4.84863,2.79472 -5.01672,0.0273 -10.03381,0.009 -15.05074,0.007 -4.26729,-0.002 -8.53473,0.0112 -12.80177,-0.018 -4.55471,-0.0312 -6.24728,-1.51826 -6.23587,-5.41321 0.006,-2.02559 0.0212,-4.05115 0.0334,-6.22501 z"
   id="path7"
   style="fill:#ebe34c;fill-opacity:1;stroke-width:0.320416" />
<path
   style="font-size:96px;line-height:0;font-family:Courier;-inkscape-font-specification:Courier;white-space:pre;fill:#ebe34c"
   d="m 372.73633,106.5974 q -0.98438,0 -1.40625,-0.46875 -0.375,-0.51562 -0.375,-1.92187 v -3.84375 q -2.8125,3.51562 -7.03125,5.48437 -4.21875,1.92188 -9.14063,1.92188 -8.85937,0 -14.85937,-6.28125 -5.95313,-6.328127 -5.95313,-15.703127 0,-9.703125 6.375,-16.125 6.375,-6.46875 15.89063,-6.46875 4.82812,0 8.67187,1.734375 3.84375,1.6875 6.60938,5.015625 V 51.988028 h -2.48438 q -4.07812,0 -5.29687,-0.703125 -1.17188,-0.75 -1.17188,-2.671875 0,-1.6875 0.9375,-2.53125 0.98438,-0.84375 2.8125,-0.84375 h 9.60938 q 1.40625,0 2.01562,0.46875 0.65625,0.46875 0.65625,1.453125 v 52.828125 h 2.10938 q 2.29687,0 3.32812,0.796872 1.03125,0.75 1.03125,2.4375 0,1.59375 -0.89062,2.48438 -0.89063,0.89062 -2.39063,0.89062 z M 342.0332,85.550528 q 0,6.46875 4.17188,10.59375 4.17187,4.125002 10.59375,4.125002 6.46875,0 10.64062,-4.265627 4.17188,-4.3125 4.17188,-10.921875 0,-6.515625 -4.17188,-10.734375 -4.125,-4.21875 -10.64062,-4.21875 -6.60938,0 -10.6875,4.265625 -4.07813,4.265625 -4.07813,11.15625 z m 69.89063,-35.765625 q 0,-5.0625 0.89062,-6.375 0.9375,-1.3125 3.9375,-1.3125 2.90625,0 3.84375,1.125 0.9375,1.078125 0.9375,5.203125 0,4.03125 -0.89062,5.015625 -0.84375,0.9375 -3.89063,0.9375 -3,0 -3.9375,-0.890625 -0.89062,-0.890625 -0.89062,-3.703125 z m 8.67187,50.203125 h 15.04688 q 1.82812,0 2.67187,0.796872 0.89063,0.75 0.89063,2.4375 0,1.92188 -0.84375,2.67188 -0.79688,0.70312 -3,0.70312 h -36.375 q -1.875,0 -2.8125,-0.84375 -0.9375,-0.84375 -0.9375,-2.53125 0,-1.64062 0.98437,-2.4375 0.98438,-0.796872 2.95313,-0.796872 H 413.4707 V 69.941153 h -9.14062 q -1.92188,0 -2.95313,-0.84375 -0.98437,-0.890625 -0.98437,-2.53125 0,-1.640625 0.9375,-2.4375 0.9375,-0.84375 2.8125,-0.84375 h 13.73437 q 1.26563,0 1.96875,0.515625 0.75,0.515625 0.75,1.40625 z m 48.65625,0 h 15.5625 q 1.82813,0 2.67188,0.796872 0.89062,0.75 0.89062,2.4375 0,1.92188 -0.84375,2.67188 -0.79687,0.70312 -3,0.70312 h -30.65625 q -1.82812,0 -2.76562,-0.84375 -0.9375,-0.84375 -0.9375,-2.53125 0,-1.64062 0.9375,-2.4375 0.98437,-0.796872 3,-0.796872 h 8.15625 V 69.941153 h -3.1875 q -4.54688,0 -5.67188,-0.703125 -1.125,-0.75 -1.125,-2.671875 0,-1.640625 0.89063,-2.4375 0.9375,-0.84375 2.8125,-0.84375 h 10.6875 q 1.26562,0 1.92187,0.515625 0.65625,0.46875 0.65625,1.40625 v 7.96875 q 4.45313,-5.578125 9.28125,-8.296875 4.82813,-2.71875 10.40625,-2.71875 4.17188,0 6.75,1.6875 2.57813,1.6875 2.57813,4.359375 0,1.734375 -1.3125,3.09375 -1.26563,1.3125 -2.8125,1.3125 -1.07813,0 -3.65625,-1.40625 -2.53125,-1.453125 -4.54688,-1.453125 -3.65625,0 -7.73437,2.625 -4.03125,2.578125 -8.95313,8.203125 z m 41.76563,3.234372 v -8.343747 q 0,-2.0625 0.75,-2.953125 0.79687,-0.890625 2.53125,-0.890625 1.92187,0 3.04687,2.625 0.75,1.59375 1.35938,2.390625 1.96875,2.53125 5.8125,4.078122 3.84375,1.5 8.48437,1.5 4.96875,0 7.96875,-2.015622 3,-2.015625 3,-5.296875 0,-3.328125 -2.4375,-4.734375 -2.39062,-1.40625 -8.25,-1.40625 h -2.57812 q -9.5625,0 -14.57813,-3.328125 -5.01562,-3.328125 -5.01562,-9.65625 0,-6.1875 4.875,-9.609375 4.92187,-3.421875 13.78125,-3.421875 3.60937,0 7.35937,1.03125 3.75,0.984375 3.9375,0.984375 0.51563,0 1.96875,-0.890625 1.45313,-0.9375 2.85938,-0.9375 1.59375,0 2.34375,1.171875 0.79687,1.171875 0.79687,3.515625 v 5.484375 q 0,2.484375 -0.75,3.609375 -0.75,1.078125 -2.39062,1.078125 -1.40625,0 -3.46875,-2.390625 -1.45313,-1.640625 -2.39063,-2.484375 -2.48437,-2.296875 -5.29687,-3.28125 -2.8125,-1.03125 -6.60938,-1.03125 -4.40625,0 -7.125,1.96875 -2.67187,1.921875 -2.67187,4.921875 0,2.953125 2.76562,4.21875 2.76563,1.265625 11.90625,1.453125 9.75,0.234375 14.25,3.421875 4.5,3.140625 4.5,9.75 0,6.328127 -4.96875,10.124997 -4.96875,3.79688 -13.40625,3.79688 -2.67187,0 -5.95312,-0.51563 -3.28125,-0.46875 -8.25,-1.64062 -1.64063,1.07812 -2.8125,1.59375 -1.17188,0.5625 -1.96875,0.5625 -1.64063,0 -2.53125,-1.125 -0.84375,-1.17188 -0.84375,-3.32813 z m 90.84375,-37.312497 q 2.29687,0 3.32812,0.796875 1.07813,0.796875 1.07813,2.53125 0,1.640625 -0.98438,2.484375 -0.98437,0.796875 -2.95312,0.796875 H 583.3457 v 15.65625 q 0,7.6875 1.96875,10.125 2.01563,2.437502 6.84375,2.437502 4.26563,0 10.21875,-2.484377 5.95313,-2.484375 7.35938,-2.484375 1.3125,0 2.20312,0.9375 0.9375,0.9375 0.9375,2.296875 0,1.546877 -1.17187,2.718747 -1.125,1.125 -3.89063,2.20313 -4.59375,1.82812 -8.29687,2.67187 -3.65625,0.84375 -6.89063,0.84375 -5.48437,0 -9.23437,-1.73437 -3.70313,-1.78125 -5.53125,-5.25 -0.9375,-1.640627 -1.35938,-3.890627 -0.375,-2.25 -0.375,-6.9375 v -1.453125 -15.65625 h -7.96875 q -1.96875,0 -2.85937,-0.75 -0.89063,-0.796875 -0.89063,-2.53125 0,-1.921875 1.21875,-2.625 1.21875,-0.703125 5.20313,-0.703125 h 5.29687 v -9.609375 -2.484375 q 0,-2.015625 0.84375,-2.953125 0.89063,-0.984375 2.71875,-0.984375 2.0625,0 2.85938,1.171875 0.79687,1.171875 0.79687,5.34375 v 9.515625 z m 40.21875,34.078125 h 15.5625 q 1.82812,0 2.67187,0.796872 0.89063,0.75 0.89063,2.4375 0,1.92188 -0.84375,2.67188 -0.79688,0.70312 -3,0.70312 h -30.65625 q -1.82813,0 -2.76563,-0.84375 -0.9375,-0.84375 -0.9375,-2.53125 0,-1.64062 0.9375,-2.4375 0.98438,-0.796872 3,-0.796872 h 8.15625 V 69.941153 h -3.1875 q -4.54687,0 -5.67187,-0.703125 -1.125,-0.75 -1.125,-2.671875 0,-1.640625 0.89062,-2.4375 0.9375,-0.84375 2.8125,-0.84375 h 10.6875 q 1.26563,0 1.92188,0.515625 0.65625,0.46875 0.65625,1.40625 v 7.96875 q 4.45312,-5.578125 9.28125,-8.296875 4.82812,-2.71875 10.40625,-2.71875 4.17187,0 6.75,1.6875 2.57812,1.6875 2.57812,4.359375 0,1.734375 -1.3125,3.09375 -1.26562,1.3125 -2.8125,1.3125 -1.07812,0 -3.65625,-1.40625 -2.53125,-1.453125 -4.54687,-1.453125 -3.65625,0 -7.73438,2.625 -4.03125,2.578125 -8.95312,8.203125 z m 46.35937,-12.984375 q 0.375,6.75 4.54688,10.453125 4.21875,3.656252 11.48437,3.656252 5.48438,0 11.95313,-2.906252 6.46875,-2.953125 7.82812,-2.953125 1.40625,0 2.34375,0.890625 0.9375,0.890625 0.9375,2.203125 0,1.359375 -0.98437,2.484377 -0.98438,1.125 -3.14063,2.20312 -4.6875,2.29688 -9.70312,3.51563 -4.96875,1.21875 -9.89063,1.21875 -10.6875,0 -17.10937,-6.14063 -6.42188,-6.187497 -6.42188,-16.359372 0,-10.359375 6.79688,-16.78125 6.79687,-6.421875 17.71875,-6.421875 9.89062,0 16.40625,6 6.51562,6 6.51562,14.53125 0,2.625 -1.125,3.515625 -1.07812,0.890625 -5.95312,0.890625 h -0.70313 z m 0.23438,-6.140625 h 30.51562 q -0.70312,-5.578125 -4.6875,-8.953125 -3.9375,-3.421875 -9.70312,-3.421875 -6.23438,0 -10.5,3.28125 -4.26563,3.28125 -5.625,9.09375 z m 57.375,6.140625 q 0.375,6.75 4.54687,10.453125 4.21875,3.656252 11.48438,3.656252 5.48437,0 11.95312,-2.906252 6.46875,-2.953125 7.82813,-2.953125 1.40625,0 2.34375,0.890625 0.9375,0.890625 0.9375,2.203125 0,1.359375 -0.98438,2.484377 -0.98437,1.125 -3.14062,2.20312 -4.6875,2.29688 -9.70313,3.51563 -4.96875,1.21875 -9.89062,1.21875 -10.6875,0 -17.10938,-6.14063 -6.42187,-6.187497 -6.42187,-16.359372 0,-10.359375 6.79687,-16.78125 6.79688,-6.421875 17.71875,-6.421875 9.89063,0 16.40625,6 6.51563,6 6.51563,14.53125 0,2.625 -1.125,3.515625 -1.07813,0.890625 -5.95313,0.890625 h -0.70312 z m 0.23437,-6.140625 h 30.51563 q -0.70313,-5.578125 -4.6875,-8.953125 -3.9375,-3.421875 -9.70313,-3.421875 -6.23437,0 -10.5,3.28125 -4.26562,3.28125 -5.625,9.09375 z"
   id="text7"
   aria-label="dirstree"
   transform="translate(7.3846156,71.384617)" /></svg>
